<svg width="512" height="512" viewBox="0 0 512 512" style="color:#ffffff" xmlns="http://www.w3.org/2000/svg" class="h-full w-full"><rect width="512" height="512" x="0" y="0" rx="0" fill="transparent" stroke="transparent" stroke-width="0" stroke-opacity="100%" paint-order="stroke"></rect><svg width="512px" height="512px" viewBox="0 0 24 24" fill="#ffffff" x="0" y="0" role="img" style="display:inline-block;vertical-align:middle" xmlns="http://www.w3.org/2000/svg"><g fill="#ffffff"><g id="feTrash0" fill="none" fill-rule="evenodd" stroke="none" stroke-width="1"><g id="feTrash1" fill="currentColor" fill-rule="nonzero"><path id="feTrash2" d="M4 5h3V4a2 2 0 0 1 2-2h6a2 2 0 0 1 2 2v1h3a1 1 0 0 1 0 2h-1v13a2 2 0 0 1-2 2H7a2 2 0 0 1-2-2V7H4a1 1 0 1 1 0-2Zm3 2v13h10V7H7Zm2-2h6V4H9v1Zm0 4h2v9H9V9Zm4 0h2v9h-2V9Z"/></g></g></g></svg></svg>