<svg width="512" height="512" viewBox="0 0 512 512" style="color:currentColor" xmlns="http://www.w3.org/2000/svg" class="h-full w-full"><rect width="512" height="512" x="0" y="0" rx="30" fill="transparent" stroke="transparent" stroke-width="0" stroke-opacity="100%" paint-order="stroke"></rect><svg width="512px" height="512px" viewBox="0 0 24 24" fill="currentColor" x="0" y="0" role="img" style="display:inline-block;vertical-align:middle" xmlns="http://www.w3.org/2000/svg"><g fill="currentColor"><g id="feMagic0" fill="none" fill-rule="evenodd" stroke="none" stroke-width="1"><g id="feMagic1" fill="currentColor"><path id="feMagic2" d="m3 5l2-2l16 16l-2 2L3 5Zm10 0l1-2l1 2l2 1l-2 1l-1 2l-1-2l-2-1l2-1ZM5 15l1-2l1 2l2 1l-2 1l-1 2l-1-2l-2-1l2-1ZM4 9l1 1l-1 1l-1-1l1-1Zm14 1l1 1l-1 1l-1-1l1-1Z"/></g></g></g></svg></svg>